<?xml version="1.0" encoding="iso-8859-1"?>
<!-- Generator: Adobe Illustrator 18.1.1, SVG Export Plug-In . SVG Version: 6.00 Build 0)  -->
<svg version="1.1" id="Capa_1" xmlns="http://www.w3.org/2000/svg" xmlns:xlink="http://www.w3.org/1999/xlink" x="0px" y="0px"
	 viewBox="0 0 27.512 27.512" style="enable-background:new 0 0 27.512 27.512;" xml:space="preserve">
<g>
	<g id="c196_x">
		<path d="M25.324,0.627H2.189C0.979,0.627,0,1.607,0,2.813v21.884c0,1.208,0.979,2.188,2.189,2.188h23.135
			c1.205,0,2.188-0.98,2.188-2.188V2.813C27.512,1.607,26.529,0.627,25.324,0.627z M19.77,17.54l-2.229,2.229
			c0,0-3.523-3.783-3.785-3.783c-0.26,0-3.783,3.783-3.783,3.783L7.744,17.54c0,0,3.785-3.471,3.785-3.78
			c0-0.314-3.785-3.786-3.785-3.786l2.229-2.228c0,0,3.553,3.782,3.783,3.782s3.785-3.782,3.785-3.782l2.229,2.228
			c0,0-3.787,3.525-3.787,3.786C15.982,14.014,19.77,17.54,19.77,17.54z"/>
	</g>
	<g id="Capa_1_54_">
	</g>
</g>
<g>
</svg>
